<?xml version="1.0" encoding="UTF-8" standalone="no"?>
<!-- Created with Inkscape (http://www.inkscape.org/) -->

<svg
   xmlns:dc="http://purl.org/dc/elements/1.1/"
   xmlns:cc="http://creativecommons.org/ns#"
   xmlns:rdf="http://www.w3.org/1999/02/22-rdf-syntax-ns#"
   xmlns:svg="http://www.w3.org/2000/svg"
   xmlns="http://www.w3.org/2000/svg"
   xmlns:sodipodi="http://sodipodi.sourceforge.net/DTD/sodipodi-0.dtd"
   xmlns:inkscape="http://www.inkscape.org/namespaces/inkscape"
   width="130"
   height="53"
   viewBox="0 0 34.395834 14.022918"
   version="1.1"
   id="svg855"
   inkscape:version="0.92.3 (2405546, 2018-03-11)"
   sodipodi:docname="upzilla_black_logo2_middle.svg">
  <defs
     id="defs849" />
  <sodipodi:namedview
     id="base"
     pagecolor="#ffffff"
     bordercolor="#666666"
     borderopacity="1.0"
     inkscape:pageopacity="0.0"
     inkscape:pageshadow="2"
     inkscape:zoom="3.959798"
     inkscape:cx="149.32543"
     inkscape:cy="65.776709"
     inkscape:document-units="mm"
     inkscape:current-layer="layer1"
     showgrid="false"
     inkscape:window-width="1920"
     inkscape:window-height="1027"
     inkscape:window-x="-8"
     inkscape:window-y="-8"
     inkscape:window-maximized="1"
     units="px" />
  <metadata
     id="metadata852">
    <rdf:RDF>
      <cc:Work
         rdf:about="">
        <dc:format>image/svg+xml</dc:format>
        <dc:type
           rdf:resource="http://purl.org/dc/dcmitype/StillImage" />
        <dc:title></dc:title>
      </cc:Work>
    </rdf:RDF>
  </metadata>
  <g
     inkscape:label="Layer 1"
     inkscape:groupmode="layer"
     id="layer1"
     transform="translate(0,-282.97705)">
    <g
       id="g47"
       transform="matrix(0.6657955,0,0,0.6657955,0.3018904,99.247193)">
      <path
         sodipodi:nodetypes="ccccccc"
         inkscape:connector-curvature="0"
         id="path3770-4-6-2-6-5"
         d="M 0.13241662,283.89834 C 9.8491477,298.87907 41.256016,298.59129 48.240903,282.91761 l -1.596053,-0.0826 4.097964,-4.01723 0.143735,5.14084 -1.274893,-0.58465 c -7.018802,16.6277 -40.383024,18.69624 -49.47923938,0.5244 z"
         style="fill:#000000;fill-opacity:1;stroke:#000000;stroke-width:0.11190392px;stroke-linecap:butt;stroke-linejoin:miter;stroke-opacity:1" />
      <g
         id="text3715-2-8-1"
         style="font-style:normal;font-weight:normal;font-size:4.47615719px;line-height:1.25;font-family:sans-serif;letter-spacing:0px;word-spacing:0px;fill:#000000;fill-opacity:1;stroke:none;stroke-width:0.11190392"
         transform="scale(1.041252,0.96038232)"
         aria-label="upzilla">
        <path
           id="path7281"
           style="font-style:normal;font-variant:normal;font-weight:normal;font-stretch:normal;font-size:14.92052364px;font-family:TypoGraphica;-inkscape-font-specification:TypoGraphica;fill:#000000;stroke-width:0.11190392"
           d="M 6.5617623,296.67469 Q 5.672942,296.64555 5.672942,295.44346 v -4.34211 H 3.3416102 v 4.34211 q 0,3.16915 3.2201521,3.344 h 0.1311374 q 3.2201521,-0.17485 3.2201521,-3.344 v -4.34211 H 7.5817199 v 4.34211 q 0,1.20209 -0.8888202,1.23123 z"
           inkscape:connector-curvature="0" />
        <path
           id="path7283"
           style="font-style:normal;font-variant:normal;font-weight:normal;font-stretch:normal;font-size:14.92052364px;font-family:TypoGraphica;-inkscape-font-specification:TypoGraphica;fill:#000000;stroke-width:0.11190392"
           d="m 12.601369,294.80963 q 0,-0.77954 0.582833,-1.34052 0.575547,-0.56097 1.362372,-0.56097 0.79411,0 1.369657,0.56097 0.582833,0.56826 0.582833,1.34052 0,0.50998 -0.26956,0.93253 -0.26956,0.42984 -0.721256,0.68483 -0.451695,0.25499 -0.961674,0.25499 -0.509979,0 -0.954389,-0.25499 -0.451696,-0.25499 -0.721256,-0.68483 -0.26956,-0.41527 -0.26956,-0.93253 z m -2.324046,6.61515 2.324046,0.007 v -3.07445 l 0.167564,0.0729 0.167565,0.0729 q 0.786824,0.28413 1.610076,0.28413 0.837822,0 1.617361,-0.28413 0.772254,-0.28413 1.376943,-0.83782 0.604689,-0.54641 0.939818,-1.27495 0.342415,-0.73582 0.342415,-1.58093 0,-0.86697 -0.335129,-1.58822 -0.335129,-0.72126 -0.947104,-1.28223 -0.61926,-0.56098 -1.376943,-0.83783 -0.764968,-0.2987 -1.617361,-0.2987 -1.114668,0 -2.105484,0.52455 -0.990816,0.51727 -1.573649,1.42794 -0.582833,0.88882 -0.590118,2.00349 z"
           inkscape:connector-curvature="0" />
        <path
           id="path7285"
           style="font-style:normal;font-variant:normal;font-weight:normal;font-stretch:normal;font-size:14.92052364px;font-family:TypoGraphica;-inkscape-font-specification:TypoGraphica;fill:#000000;stroke-width:0.11190392"
           d="m 22.196256,296.45613 h 3.27115 l -0.560977,2.10548 h -6.615154 l 3.293006,-5.50777 h -2.695602 l 0.466266,-1.95249 h 6.010465 z"
           inkscape:connector-curvature="0" />
        <path
           id="path7287"
           style="font-style:normal;font-variant:normal;font-weight:normal;font-stretch:normal;font-size:14.92052364px;font-family:TypoGraphica;-inkscape-font-specification:TypoGraphica;fill:#000000;stroke-width:0.11190392"
           d="m 28.250434,291.10864 v 7.46755 h -2.324046 v -7.46027 z m 0.0073,-2.11277 q 0,0.3497 -0.16028,0.61926 -0.160279,0.26956 -0.437124,0.43712 -0.276846,0.16757 -0.611975,0.16757 -0.335129,0 -0.604689,-0.16028 -0.276846,-0.16757 -0.437125,-0.44441 -0.167564,-0.29142 -0.167564,-0.61926 0,-0.33513 0.160279,-0.61198 0.17485,-0.28413 0.44441,-0.44441 0.26956,-0.16027 0.604689,-0.16027 0.335129,0 0.611975,0.16027 0.26956,0.16028 0.437124,0.44441 0.16028,0.27685 0.16028,0.61198 z"
           inkscape:connector-curvature="0" />
        <path
           id="path7289"
           style="font-style:normal;font-variant:normal;font-weight:normal;font-stretch:normal;font-size:14.92052364px;font-family:TypoGraphica;-inkscape-font-specification:TypoGraphica;fill:#000000;stroke-width:0.11190392"
           d="m 28.636561,288.22362 2.324046,-0.007 v 10.33071 l -2.324046,0.0292 z"
           inkscape:connector-curvature="0" />
        <path
           id="path7291"
           style="font-style:normal;font-variant:normal;font-weight:normal;font-stretch:normal;font-size:14.92052364px;font-family:TypoGraphica;-inkscape-font-specification:TypoGraphica;fill:#000000;stroke-width:0.11190392"
           d="m 31.317593,288.22362 2.324046,-0.007 v 10.33071 l -2.324046,0.0292 z"
           inkscape:connector-curvature="0" />
        <path
           id="path7293"
           style="font-style:normal;font-variant:normal;font-weight:normal;font-stretch:normal;font-size:14.92052364px;font-family:TypoGraphica;-inkscape-font-specification:TypoGraphica;fill:#000000;stroke-width:0.11190392"
           d="m 36.59223,293.84795 q 0.26956,-0.42984 0.721256,-0.68483 0.451695,-0.2477 0.954389,-0.2477 0.517264,0 0.961674,0.2477 0.451695,0.25499 0.721256,0.68483 0.26956,0.42984 0.26956,0.93982 0,0.77226 -0.582833,1.33323 -0.575548,0.55369 -1.369657,0.55369 -0.786825,0 -1.362373,-0.55369 -0.582832,-0.56097 -0.582832,-1.33323 0,-0.50998 0.26956,-0.93982 z m 3.63542,4.71366 2.309476,0.0219 0.0073,-3.7957 q 0,-0.85239 -0.342414,-1.58822 -0.335129,-0.71397 -0.947104,-1.26766 -0.582833,-0.53912 -1.369657,-0.83054 -0.786825,-0.29141 -1.617361,-0.29141 -0.837823,0 -1.617362,0.2987 -0.779539,0.28413 -1.369657,0.82325 -0.597404,0.53912 -0.939819,1.26766 -0.342414,0.73583 -0.342414,1.58822 0,1.12924 0.590118,2.0472 0.582833,0.90339 1.573649,1.42794 0.990817,0.51727 2.105485,0.51727 0.845107,0 1.617361,-0.2987 0.109281,-0.0364 0.342414,-0.13843 z"
           inkscape:connector-curvature="0" />
      </g>
    </g>
  </g>
</svg>
